<?xml version="1.0" encoding="UTF-8" standalone="no"?>
<svg
   id="Layer_1"
   style="enable-background:new 0 0 30 30;"
   version="1.1"
   viewBox="0 0 30 30"
   xml:space="preserve"
   sodipodi:docname="2639808_duplicate_icon.svg"
   inkscape:version="1.4.2 (ebf0e940d0, 2025-05-08)"
   xmlns:inkscape="http://www.inkscape.org/namespaces/inkscape"
   xmlns:sodipodi="http://sodipodi.sourceforge.net/DTD/sodipodi-0.dtd"
   xmlns="http://www.w3.org/2000/svg"
   xmlns:svg="http://www.w3.org/2000/svg"><defs
     id="defs2" /><sodipodi:namedview
     id="namedview2"
     pagecolor="#ffffff"
     bordercolor="#000000"
     borderopacity="0.25"
     inkscape:showpageshadow="2"
     inkscape:pageopacity="0.0"
     inkscape:pagecheckerboard="0"
     inkscape:deskcolor="#d1d1d1"
     inkscape:zoom="8.4"
     inkscape:cx="15"
     inkscape:cy="15"
     inkscape:window-width="1017"
     inkscape:window-height="990"
     inkscape:window-x="26"
     inkscape:window-y="23"
     inkscape:window-maximized="0"
     inkscape:current-layer="Layer_1" /><path
     d="M24,7H6V6c0-1.105,0.895-2,2-2h19c1.105,0,2,0.895,2,2v14c0,1.105-0.895,2-2,2h-1V9C26,7.895,25.105,7,24,7z"
     id="path1"
     style="fill:#228BE6;fill-opacity:1" /><path
     d="M22,9H3c-1.105,0-2,0.895-2,2v13c0,1.105,0.895,2,2,2h19c1.105,0,2-0.895,2-2V11C24,9.895,23.105,9,22,9z M16,19h-3v3  c0,0.552-0.448,1-1,1h0c-0.552,0-1-0.448-1-1v-3H8c-0.552,0-1-0.448-1-1v0c0-0.552,0.448-1,1-1h3v-3c0-0.552,0.448-1,1-1h0  c0.552,0,1,0.448,1,1v3h3c0.552,0,1,0.448,1,1v0C17,18.552,16.552,19,16,19z"
     id="path2"
     style="fill:#228BE6;fill-opacity:1" /></svg>
