<?xml version="1.0" encoding="UTF-8" standalone="no"?>
<!-- Created with Inkscape (http://www.inkscape.org/) -->

<svg
   width="138.64166mm"
   height="138.64166mm"
   viewBox="0 0 138.64166 138.64166"
   version="1.1"
   id="svg1"
   xml:space="preserve"
   sodipodi:docname="workspace_empty.svg"
   inkscape:version="1.4.2 (ebf0e940d0, 2025-05-08)"
   xmlns:inkscape="http://www.inkscape.org/namespaces/inkscape"
   xmlns:sodipodi="http://sodipodi.sourceforge.net/DTD/sodipodi-0.dtd"
   xmlns:xlink="http://www.w3.org/1999/xlink"
   xmlns="http://www.w3.org/2000/svg"
   xmlns:svg="http://www.w3.org/2000/svg"><sodipodi:namedview
     id="namedview1"
     pagecolor="#ffffff"
     bordercolor="#000000"
     borderopacity="0.25"
     inkscape:showpageshadow="2"
     inkscape:pageopacity="0.0"
     inkscape:pagecheckerboard="0"
     inkscape:deskcolor="#d1d1d1"
     inkscape:document-units="mm"
     inkscape:zoom="1.4142136"
     inkscape:cx="294.86353"
     inkscape:cy="225.92062"
     inkscape:window-width="2888"
     inkscape:window-height="1339"
     inkscape:window-x="26"
     inkscape:window-y="23"
     inkscape:window-maximized="0"
     inkscape:current-layer="svg1" /><defs
     id="defs1"><linearGradient
       id="linearGradient1"
       inkscape:collect="always"><stop
         style="stop-color:#ff6963;stop-opacity:1;"
         offset="0"
         id="stop1" /><stop
         style="stop-color:#a12723;stop-opacity:1;"
         offset="1"
         id="stop2" /></linearGradient><linearGradient
       inkscape:collect="always"
       xlink:href="#linearGradient1"
       id="linearGradient2"
       x1="59.240673"
       y1="9.1575851"
       x2="102.70087"
       y2="52.617786"
       gradientUnits="userSpaceOnUse" /><linearGradient
       inkscape:collect="always"
       xlink:href="#linearGradient1-8"
       id="linearGradient2-6"
       x1="69.929054"
       y1="30.330057"
       x2="69.929054"
       y2="130.50856"
       gradientUnits="userSpaceOnUse"
       gradientTransform="matrix(1,0,0,0.48983873,-2.8103406e-7,28.317056)" /><linearGradient
       id="linearGradient1-8"
       inkscape:collect="always"><stop
         style="stop-color:#e09f44;stop-opacity:0;"
         offset="0.2232435"
         id="stop1-8" /><stop
         style="stop-color:#573200;stop-opacity:1;"
         offset="1"
         id="stop2-4" /></linearGradient></defs><path
     style="display:inline;fill:#e09f44;fill-opacity:1;stroke-width:0.529167;stroke-linecap:round;stroke-linejoin:round;paint-order:stroke fill markers"
     d="M 19.839801,55.50588 69.928871,31.750006 120.01836,55.50588 69.928871,137.07381 Z"
     id="path15"
     sodipodi:nodetypes="ccccc" /><path
     id="path15-8"
     style="display:inline;fill:#ca8f3d;fill-opacity:1;stroke-width:0.529167;stroke-linecap:round;stroke-linejoin:round;paint-order:stroke fill markers"
     d="M 69.928871,31.750006 V 137.07381 L 120.01831,55.505662 Z"
     sodipodi:nodetypes="cccc" /><path
     style="display:inline;fill:#fee590;fill-opacity:1;stroke-width:0.529167;stroke-linecap:round;stroke-linejoin:round;paint-order:stroke fill markers"
     d="m 18.283101,82.302353 0.27322,24.771437 c -0.0304,3.43036 0.94107,5.82857 2.91428,7.19464 l 43.56072,21.32271 c 4.60481,2.24455 5.75365,1.7312 9.40324,-0.1233 l 42.387809,-20.65301 c 1.95999,-1.13651 4.74645,-1.93855 4.18929,-9.10714 l -0.36429,-28.141081 z"
     id="path13" /><path
     id="path13-1"
     style="display:inline;fill:#ffdc6e;fill-opacity:1;stroke-width:0.529167;stroke-linecap:round;stroke-linejoin:round;paint-order:stroke fill markers"
     d="m 120.64721,77.566847 -51.191689,2.368331 c 0.27329,0.07324 0.47335,0.32154 0.47335,0.618567 v 56.520065 c 1.38424,-0.039 2.60644,-0.64103 4.50567,-1.6061 l 42.387579,-20.653 c 1.95999,-1.13651 4.74657,-1.93835 4.18941,-9.10694 z" /><rect
     style="display:inline;fill:url(#linearGradient2-6);stroke-width:177.469;stroke-linecap:round;stroke-linejoin:round;paint-order:stroke fill markers"
     id="rect1"
     width="100.17851"
     height="24.407341"
     x="19.839802"
     y="55.505878"
     rx="0"
     ry="24.407341" /><path
     style="fill:#f0bd59;fill-opacity:1;stroke-width:0.529167;stroke-linecap:round;stroke-linejoin:round;paint-order:stroke fill markers"
     d="m 19.839801,55.505879 50.08929,24.407143 -12.1125,16.256251 c -1.98839,2.291961 -4.09822,3.005361 -6.32947,2.140181 l -40.8,-19.716967 C 9.1920006,77.729275 6.7424906,74.712463 8.5241806,71.2157 Z"
     id="path14" /><path
     style="fill:#f0bd59;fill-opacity:1;stroke-width:0.529167;stroke-linecap:round;stroke-linejoin:round;paint-order:stroke fill markers"
     d="m 120.01836,55.505879 -50.089269,24.407143 12.1125,16.256251 c 1.98839,2.291961 4.09821,3.005361 6.32946,2.140181 L 129.17104,78.592487 c 1.49513,-0.863212 3.94463,-3.880024 2.16294,-7.376787 z"
     id="path14-1" /><g
     id="g15"
     transform="matrix(0.97428316,0.97428316,-0.97428316,0.97428316,14.405111,-7.626369)"><ellipse
       style="display:inline;fill:url(#linearGradient2);fill-opacity:1;stroke-width:0.500173;stroke-linecap:round;stroke-linejoin:round;paint-order:stroke fill markers"
       id="path12"
       cx="80.970772"
       cy="30.887678"
       transform="matrix(0.51319783,-0.51319783,0.51319783,0.51319783,-8.4111649,17.707531)"
       rx="30.730999"
       ry="30.731102" /><path
       id="rect15"
       style="fill:#f0f0fc;stroke-width:0.529167;stroke-linecap:round;stroke-linejoin:round;paint-order:stroke fill markers"
       d="m 45.773382,-23.965833 c -0.70783,0.70783 -1.144348,1.686878 -1.144348,2.77163 v 8.833889 h -8.784031 c -2.169504,0 -3.915978,1.746475 -3.915978,3.9159798 0,2.1695056 1.746739,3.9162448 3.916243,3.9162448 l 8.783766,2.65e-4 v 8.83389 c 0,2.1695028 1.746475,3.9159778 3.915978,3.9159778 2.169503,0 3.916242,-1.74674 3.916242,-3.9162428 v -8.83389 h 8.883748 c 2.169503,0 3.916243,-1.7467392 3.916243,-3.9162448 0,-2.1695048 -1.746475,-3.9159798 -3.915978,-3.9159798 h -8.884278 v -8.833889 c 0,-2.169504 -1.746474,-3.915978 -3.915977,-3.915978 -1.084752,0 -2.0638,0.436518 -2.77163,1.144348 z" /></g></svg>
