<svg class="main-svg" xmlns="http://www.w3.org/2000/svg" xmlns:xlink="http://www.w3.org/1999/xlink" width="1425" height="1425" style="" viewBox="0 0 475 475"><rect x="0" y="0" width="475" height="475" style="fill: rgb(255, 255, 255); fill-opacity: 0;"/><defs id="defs-801fde"><g class="clips"><clipPath id="clip801fdepolar-for-traces"><path d="M177.5,0A177.5,177.5 0,1,0 -177.5,-2.173748068486552e-14A177.5,177.5 0,1,0 177.5,4.347496136973104e-14Z" transform="translate(177.5,177.5)"/></clipPath></g><g class="gradients"/><g class="patterns"/></defs><g class="bglayer"/><g class="layer-below"><g class="imagelayer"/><g class="shapelayer"/></g><g class="cartesianlayer"/><g class="polarlayer"><g class="polar"><g class="polarsublayer draglayer"/><g class="polarsublayer plotbg"><path d="M177.5,0A177.5,177.5 0,1,0 -177.5,-2.173748068486552e-14A177.5,177.5 0,1,0 177.5,4.347496136973104e-14Z" transform="translate(237.5,237.5)" style="fill: rgb(229, 236, 246); fill-opacity: 1;"/></g><g class="polarsublayer backplot"><g class="maplayer"/></g><g class="polarsublayer angular-grid" style="fill: none;"><path class="angularaxisgrid" d="M237.5,237.5L415,237.5" style="stroke: rgb(255, 255, 255); stroke-opacity: 1; stroke-width: 1px;"/><path class="angularaxisgrid" d="M237.5,237.5L348.1694398299252,98.72491186192471" style="stroke: rgb(255, 255, 255); stroke-opacity: 1; stroke-width: 1px;"/><path class="angularaxisgrid" d="M237.5,237.5L198.0025342227542,64.45029558772632" style="stroke: rgb(255, 255, 255); stroke-opacity: 1; stroke-width: 1px;"/><path class="angularaxisgrid" d="M237.5,237.5L77.57802594732061,160.4856363066334" style="stroke: rgb(255, 255, 255); stroke-opacity: 1; stroke-width: 1px;"/><path class="angularaxisgrid" d="M237.5,237.5L77.57802594732061,314.51436369336653" style="stroke: rgb(255, 255, 255); stroke-opacity: 1; stroke-width: 1px;"/><path class="angularaxisgrid" d="M237.5,237.5L198.00253422275415,410.5497044122737" style="stroke: rgb(255, 255, 255); stroke-opacity: 1; stroke-width: 1px;"/><path class="angularaxisgrid" d="M237.5,237.5L348.1694398299252,376.2750881380753" style="stroke: rgb(255, 255, 255); stroke-opacity: 1; stroke-width: 1px;"/></g><g class="polarsublayer radial-grid" style="fill: none;" transform="translate(237.5,237.5)"><path class="xgrid" d="M22.55,0A22.55,22.55 0,1,0 -22.55,-2.7615785320772815e-15A22.55,22.55 0,1,0 22.55,5.523157064154563e-15Z" style="stroke: rgb(255, 255, 255); stroke-opacity: 1; stroke-width: 1px;"/><path class="xgrid" d="M45.11,0A45.11,45.11 0,1,0 -45.11,-5.5243817109537105e-15A45.11,45.11 0,1,0 45.11,1.1048763421907421e-14Z" style="stroke: rgb(255, 255, 255); stroke-opacity: 1; stroke-width: 1px;"/><path class="xgrid" d="M67.66,0A67.66,67.66 0,1,0 -67.66,-8.285960243030992e-15A67.66,67.66 0,1,0 67.66,1.6571920486061983e-14Z" style="stroke: rgb(255, 255, 255); stroke-opacity: 1; stroke-width: 1px;"/><path class="xgrid" d="M90.22,0A90.22,90.22 0,1,0 -90.22,-1.1048763421907421e-14A90.22,90.22 0,1,0 90.22,2.2097526843814842e-14Z" style="stroke: rgb(255, 255, 255); stroke-opacity: 1; stroke-width: 1px;"/><path class="xgrid" d="M112.77,0A112.77,112.77 0,1,0 -112.77,-1.3810341953984702e-14A112.77,112.77 0,1,0 112.77,2.7620683907969404e-14Z" style="stroke: rgb(255, 255, 255); stroke-opacity: 1; stroke-width: 1px;"/><path class="xgrid" d="M135.32,0A135.32,135.32 0,1,0 -135.32,-1.6571920486061983e-14A135.32,135.32 0,1,0 135.32,3.3143840972123966e-14Z" style="stroke: rgb(255, 255, 255); stroke-opacity: 1; stroke-width: 1px;"/><path class="xgrid" d="M157.88,0A157.88,157.88 0,1,0 -157.88,-1.933472366493841e-14A157.88,157.88 0,1,0 157.88,3.866944732987682e-14Z" style="stroke: rgb(255, 255, 255); stroke-opacity: 1; stroke-width: 1px;"/></g><g class="polarsublayer frontplot" transform="translate(60,60)"><g class="barlayer"/><g class="scatterlayer"><g class="trace scatter trace52a5e3" style="stroke-miterlimit: 2; opacity: 1;"><g class="fills" clip-path="url(#clip801fdepolar-for-traces)"/><g class="errorbars"/><g class="lines"/><g class="points"/><g class="text"/></g><g class="trace scatter trace1dccd1" style="stroke-miterlimit: 2; opacity: 1;"><g class="fills" clip-path="url(#clip801fdepolar-for-traces)"/><g class="errorbars"/><g class="lines"><path class="js-line" style="vector-effect: none; fill: none; stroke: rgb(99, 110, 250); stroke-opacity: 1; stroke-width: 2px; opacity: 1;" d="M355,177.5L218.42,126.19L164.75,121.65L129.34,154.31L132.59,199.13L167.66,220.6L204.36,211.18L355,177.5" clip-path="url(#clip801fdepolar-for-traces)"/></g><g class="points"><path class="point plotly-customdata" transform="translate(355,177.5)" style="opacity: 1; stroke-width: 0px; fill: rgb(99, 110, 250); fill-opacity: 1;" d="M5,0A5,5 0 1,1 0,-5A5,5 0 0,1 5,0Z"/><path class="point plotly-customdata" transform="translate(218.42,126.19)" style="opacity: 1; stroke-width: 0px; fill: rgb(99, 110, 250); fill-opacity: 1;" d="M5,0A5,5 0 1,1 0,-5A5,5 0 0,1 5,0Z"/><path class="point plotly-customdata" transform="translate(164.75,121.65)" style="opacity: 1; stroke-width: 0px; fill: rgb(99, 110, 250); fill-opacity: 1;" d="M5,0A5,5 0 1,1 0,-5A5,5 0 0,1 5,0Z"/><path class="point plotly-customdata" transform="translate(129.34,154.31)" style="opacity: 1; stroke-width: 0px; fill: rgb(99, 110, 250); fill-opacity: 1;" d="M5,0A5,5 0 1,1 0,-5A5,5 0 0,1 5,0Z"/><path class="point plotly-customdata" transform="translate(132.59,199.13)" style="opacity: 1; stroke-width: 0px; fill: rgb(99, 110, 250); fill-opacity: 1;" d="M5,0A5,5 0 1,1 0,-5A5,5 0 0,1 5,0Z"/><path class="point plotly-customdata" transform="translate(167.66,220.6)" style="opacity: 1; stroke-width: 0px; fill: rgb(99, 110, 250); fill-opacity: 1;" d="M5,0A5,5 0 1,1 0,-5A5,5 0 0,1 5,0Z"/><path class="point plotly-customdata" transform="translate(204.36,211.18)" style="opacity: 1; stroke-width: 0px; fill: rgb(99, 110, 250); fill-opacity: 1;" d="M5,0A5,5 0 1,1 0,-5A5,5 0 0,1 5,0Z"/><path class="point plotly-customdata" transform="translate(355,177.5)" style="opacity: 1; stroke-width: 0px; fill: rgb(99, 110, 250); fill-opacity: 1;" d="M5,0A5,5 0 1,1 0,-5A5,5 0 0,1 5,0Z"/></g><g class="text"/></g><g class="trace scatter trace606ae7" style="stroke-miterlimit: 2; opacity: 1;"><g class="fills" clip-path="url(#clip801fdepolar-for-traces)"/><g class="errorbars"/><g class="lines"><path class="js-line" style="vector-effect: none; fill: none; stroke: rgb(239, 85, 59); stroke-opacity: 1; stroke-width: 2px; opacity: 1;" d="M259.6,177.5L216.87,128.13L165.71,125.83L134.01,156.56L135.64,197.66L168.11,218.62L202.81,209.24L259.6,177.5" clip-path="url(#clip801fdepolar-for-traces)"/></g><g class="points"><path class="point plotly-customdata" transform="translate(259.6,177.5)" style="opacity: 1; stroke-width: 0px; fill: rgb(239, 85, 59); fill-opacity: 1;" d="M5,0A5,5 0 1,1 0,-5A5,5 0 0,1 5,0Z"/><path class="point plotly-customdata" transform="translate(216.87,128.13)" style="opacity: 1; stroke-width: 0px; fill: rgb(239, 85, 59); fill-opacity: 1;" d="M5,0A5,5 0 1,1 0,-5A5,5 0 0,1 5,0Z"/><path class="point plotly-customdata" transform="translate(165.71,125.83)" style="opacity: 1; stroke-width: 0px; fill: rgb(239, 85, 59); fill-opacity: 1;" d="M5,0A5,5 0 1,1 0,-5A5,5 0 0,1 5,0Z"/><path class="point plotly-customdata" transform="translate(134.01,156.56)" style="opacity: 1; stroke-width: 0px; fill: rgb(239, 85, 59); fill-opacity: 1;" d="M5,0A5,5 0 1,1 0,-5A5,5 0 0,1 5,0Z"/><path class="point plotly-customdata" transform="translate(135.64,197.66)" style="opacity: 1; stroke-width: 0px; fill: rgb(239, 85, 59); fill-opacity: 1;" d="M5,0A5,5 0 1,1 0,-5A5,5 0 0,1 5,0Z"/><path class="point plotly-customdata" transform="translate(168.11,218.62)" style="opacity: 1; stroke-width: 0px; fill: rgb(239, 85, 59); fill-opacity: 1;" d="M5,0A5,5 0 1,1 0,-5A5,5 0 0,1 5,0Z"/><path class="point plotly-customdata" transform="translate(202.81,209.24)" style="opacity: 1; stroke-width: 0px; fill: rgb(239, 85, 59); fill-opacity: 1;" d="M5,0A5,5 0 1,1 0,-5A5,5 0 0,1 5,0Z"/><path class="point plotly-customdata" transform="translate(259.6,177.5)" style="opacity: 1; stroke-width: 0px; fill: rgb(239, 85, 59); fill-opacity: 1;" d="M5,0A5,5 0 1,1 0,-5A5,5 0 0,1 5,0Z"/></g><g class="text"/></g><g class="trace scatter trace7415e7" style="stroke-miterlimit: 2; opacity: 1;"><g class="fills" clip-path="url(#clip801fdepolar-for-traces)"/><g class="errorbars"/><g class="lines"><path class="js-line" style="vector-effect: none; fill: none; stroke: rgb(99, 110, 250); stroke-opacity: 1; stroke-width: 2px; opacity: 1;" d="M334.02,177.5L254.28,81.22L153.51,72.39L88.09,134.44L93.17,218.11L159.18,257.76L225.45,237.63L334.02,177.5" clip-path="url(#clip801fdepolar-for-traces)"/></g><g class="points"><path class="point plotly-customdata" transform="translate(334.02,177.5)" style="opacity: 1; stroke-width: 0px; fill: rgb(99, 110, 250); fill-opacity: 1;" d="M5,5H-5V-5H5Z"/><path class="point plotly-customdata" transform="translate(254.28,81.22)" style="opacity: 1; stroke-width: 0px; fill: rgb(99, 110, 250); fill-opacity: 1;" d="M5,5H-5V-5H5Z"/><path class="point plotly-customdata" transform="translate(153.51,72.39)" style="opacity: 1; stroke-width: 0px; fill: rgb(99, 110, 250); fill-opacity: 1;" d="M5,5H-5V-5H5Z"/><path class="point plotly-customdata" transform="translate(88.09,134.44)" style="opacity: 1; stroke-width: 0px; fill: rgb(99, 110, 250); fill-opacity: 1;" d="M5,5H-5V-5H5Z"/><path class="point plotly-customdata" transform="translate(93.17,218.11)" style="opacity: 1; stroke-width: 0px; fill: rgb(99, 110, 250); fill-opacity: 1;" d="M5,5H-5V-5H5Z"/><path class="point plotly-customdata" transform="translate(159.18,257.76)" style="opacity: 1; stroke-width: 0px; fill: rgb(99, 110, 250); fill-opacity: 1;" d="M5,5H-5V-5H5Z"/><path class="point plotly-customdata" transform="translate(225.45,237.63)" style="opacity: 1; stroke-width: 0px; fill: rgb(99, 110, 250); fill-opacity: 1;" d="M5,5H-5V-5H5Z"/><path class="point plotly-customdata" transform="translate(334.02,177.5)" style="opacity: 1; stroke-width: 0px; fill: rgb(99, 110, 250); fill-opacity: 1;" d="M5,5H-5V-5H5Z"/></g><g class="text"/></g><g class="trace scatter trace24fc8f" style="stroke-miterlimit: 2; opacity: 1;"><g class="fills" clip-path="url(#clip801fdepolar-for-traces)"/><g class="errorbars"/><g class="lines"><path class="js-line" style="vector-effect: none; fill: none; stroke: rgb(239, 85, 59); stroke-opacity: 1; stroke-width: 2px; opacity: 1;" d="M354.32,177.5L251.61,84.57L155.82,82.51L97.64,139.04L100.89,214.39L159.83,254.9L223.2,234.81L354.32,177.5" clip-path="url(#clip801fdepolar-for-traces)"/></g><g class="points"><path class="point plotly-customdata" transform="translate(354.32,177.5)" style="opacity: 1; stroke-width: 0px; fill: rgb(239, 85, 59); fill-opacity: 1;" d="M5,5H-5V-5H5Z"/><path class="point plotly-customdata" transform="translate(251.61,84.57)" style="opacity: 1; stroke-width: 0px; fill: rgb(239, 85, 59); fill-opacity: 1;" d="M5,5H-5V-5H5Z"/><path class="point plotly-customdata" transform="translate(155.82,82.51)" style="opacity: 1; stroke-width: 0px; fill: rgb(239, 85, 59); fill-opacity: 1;" d="M5,5H-5V-5H5Z"/><path class="point plotly-customdata" transform="translate(97.64,139.04)" style="opacity: 1; stroke-width: 0px; fill: rgb(239, 85, 59); fill-opacity: 1;" d="M5,5H-5V-5H5Z"/><path class="point plotly-customdata" transform="translate(100.89,214.39)" style="opacity: 1; stroke-width: 0px; fill: rgb(239, 85, 59); fill-opacity: 1;" d="M5,5H-5V-5H5Z"/><path class="point plotly-customdata" transform="translate(159.83,254.9)" style="opacity: 1; stroke-width: 0px; fill: rgb(239, 85, 59); fill-opacity: 1;" d="M5,5H-5V-5H5Z"/><path class="point plotly-customdata" transform="translate(223.2,234.81)" style="opacity: 1; stroke-width: 0px; fill: rgb(239, 85, 59); fill-opacity: 1;" d="M5,5H-5V-5H5Z"/><path class="point plotly-customdata" transform="translate(354.32,177.5)" style="opacity: 1; stroke-width: 0px; fill: rgb(239, 85, 59); fill-opacity: 1;" d="M5,5H-5V-5H5Z"/></g><g class="text"/></g></g></g><g class="polarsublayer angular-line"><path style="fill: none; stroke: rgb(255, 255, 255); stroke-opacity: 1;" d="M177.5,0A177.5,177.5 0,1,0 -177.5,-2.173748068486552e-14A177.5,177.5 0,1,0 177.5,4.347496136973104e-14Z" transform="translate(237.5,237.5)" stroke-width="1"/></g><g class="polarsublayer radial-line"><line style="fill: none; stroke: rgb(255, 255, 255); stroke-opacity: 1;" x1="0" y1="0" x2="177.5" y2="0" transform="translate(237.5,237.5)" stroke-width="1"/></g><g class="polarsublayer angular-axis"><g class="angularaxistick"><text text-anchor="start" x="2.9000000000000004" y="4.199999999999999" style="font-family: TOBESTRIPPEDOpen SansTOBESTRIPPED, verdana, arial, sans-serif; font-size: 12px; fill: rgb(42, 63, 95); fill-opacity: 1; white-space: pre; opacity: 1;" transform="translate(415,237.5)">04bits</text></g><g class="angularaxistick"><text text-anchor="start" x="1.8081204253903276" y="-1.5250496892738776" style="font-family: TOBESTRIPPEDOpen SansTOBESTRIPPED, verdana, arial, sans-serif; font-size: 12px; fill: rgb(42, 63, 95); fill-opacity: 1; white-space: pre; opacity: 1;" transform="translate(348.1694398299252,98.72491186192471)">08bits</text></g><g class="angularaxistick"><text text-anchor="end" x="-0.6453107084733116" y="-4.232530011947146" style="font-family: TOBESTRIPPEDOpen SansTOBESTRIPPED, verdana, arial, sans-serif; font-size: 12px; fill: rgb(42, 63, 95); fill-opacity: 1; white-space: pre; opacity: 1;" transform="translate(198.0025342227542,64.45029558772632)">16bits</text></g><g class="angularaxistick"><text text-anchor="end" x="-2.6128097169170155" y="1.4844854278671007" style="font-family: TOBESTRIPPEDOpen SansTOBESTRIPPED, verdana, arial, sans-serif; font-size: 12px; fill: rgb(42, 63, 95); fill-opacity: 1; white-space: pre; opacity: 1;" transform="translate(77.57802594732061,160.4856363066334)">24bits</text></g><g class="angularaxistick"><text text-anchor="end" x="-2.612809716917016" y="10.248936958041774" style="font-family: TOBESTRIPPEDOpen SansTOBESTRIPPED, verdana, arial, sans-serif; font-size: 12px; fill: rgb(42, 63, 95); fill-opacity: 1; white-space: pre; opacity: 1;" transform="translate(77.57802594732061,314.51436369336653)">32bits</text></g><g class="angularaxistick"><text text-anchor="end" x="-0.6453107084733124" y="15.461013814125693" style="font-family: TOBESTRIPPEDOpen SansTOBESTRIPPED, verdana, arial, sans-serif; font-size: 12px; fill: rgb(42, 63, 95); fill-opacity: 1; white-space: pre; opacity: 1;" transform="translate(198.00253422275415,410.5497044122737)">48bits</text></g><g class="angularaxistick"><text text-anchor="start" x="1.808120425390327" y="14.267946256580325" style="font-family: TOBESTRIPPEDOpen SansTOBESTRIPPED, verdana, arial, sans-serif; font-size: 12px; fill: rgb(42, 63, 95); fill-opacity: 1; white-space: pre; opacity: 1;" transform="translate(348.1694398299252,376.2750881380753)">64bits</text></g></g><g class="polarsublayer radial-axis" transform="translate(237.5,237.5)"><g class="xtick"><text text-anchor="start" x="0" y="14.9" style="font-family: TOBESTRIPPEDOpen SansTOBESTRIPPED, verdana, arial, sans-serif; font-size: 12px; fill: rgb(42, 63, 95); fill-opacity: 1; white-space: pre; opacity: 1;" transform=" rotate(90,0,8.9)">0</text></g><g class="xtick"><text text-anchor="start" x="0" y="14.9" style="font-family: TOBESTRIPPEDOpen SansTOBESTRIPPED, verdana, arial, sans-serif; font-size: 12px; fill: rgb(42, 63, 95); fill-opacity: 1; white-space: pre; opacity: 1;" transform="translate(22.55,0) rotate(90,0,8.9)">100</text></g><g class="xtick"><text text-anchor="start" x="0" y="14.9" style="font-family: TOBESTRIPPEDOpen SansTOBESTRIPPED, verdana, arial, sans-serif; font-size: 12px; fill: rgb(42, 63, 95); fill-opacity: 1; white-space: pre; opacity: 1;" transform="translate(45.11,0) rotate(90,0,8.9)">200</text></g><g class="xtick"><text text-anchor="start" x="0" y="14.9" style="font-family: TOBESTRIPPEDOpen SansTOBESTRIPPED, verdana, arial, sans-serif; font-size: 12px; fill: rgb(42, 63, 95); fill-opacity: 1; white-space: pre; opacity: 1;" transform="translate(67.66,0) rotate(90,0,8.9)">300</text></g><g class="xtick"><text text-anchor="start" x="0" y="14.9" style="font-family: TOBESTRIPPEDOpen SansTOBESTRIPPED, verdana, arial, sans-serif; font-size: 12px; fill: rgb(42, 63, 95); fill-opacity: 1; white-space: pre; opacity: 1;" transform="translate(90.22,0) rotate(90,0,8.9)">400</text></g><g class="xtick"><text text-anchor="start" x="0" y="14.9" style="font-family: TOBESTRIPPEDOpen SansTOBESTRIPPED, verdana, arial, sans-serif; font-size: 12px; fill: rgb(42, 63, 95); fill-opacity: 1; white-space: pre; opacity: 1;" transform="translate(112.77,0) rotate(90,0,8.9)">500</text></g><g class="xtick"><text text-anchor="start" x="0" y="14.9" style="font-family: TOBESTRIPPEDOpen SansTOBESTRIPPED, verdana, arial, sans-serif; font-size: 12px; fill: rgb(42, 63, 95); fill-opacity: 1; white-space: pre; opacity: 1;" transform="translate(135.32,0) rotate(90,0,8.9)">600</text></g><g class="xtick"><text text-anchor="start" x="0" y="14.9" style="font-family: TOBESTRIPPEDOpen SansTOBESTRIPPED, verdana, arial, sans-serif; font-size: 12px; fill: rgb(42, 63, 95); fill-opacity: 1; white-space: pre; opacity: 1;" transform="translate(157.88,0) rotate(90,0,8.9)">700</text></g></g></g></g><g class="smithlayer"/><g class="ternarylayer"/><g class="geolayer"/><g class="funnelarealayer"/><g class="pielayer"/><g class="iciclelayer"/><g class="treemaplayer"/><g class="sunburstlayer"/><g class="glimages"/><defs id="topdefs-801fde"><g class="clips"/></defs><g class="layer-above"><g class="imagelayer"/><g class="shapelayer"/></g><g class="infolayer"><g class="g-gtitle"/><g class="g-polartitle"/></g></svg>